# xmcd
#
# Track frame offsets: 
#        150
#        13695
#        26222
#        40590
#        53173
#        65280
#        77733
#        91330
#        105855
#        120406
#        134135
#        148050
#        161100
#        174579
#        188509
#        201329
#        216127
#        229510
#        243404
#        255894
#        268715
#        280958
#        293629
#        305351
#
# Disc length: 4221 seconds
#
# Revision: 0
# Processed by: cddbd v1.5.2PL0 Copyright (c) Steve Scherf et al.
# Submitted via: ExactAudioCopy v0.95b3
#
DISCID=4e107b18
DTITLE=Jimmie Lunceford  - Volume 5 1937-1939 Complete Edition
DYEAR=1900
DGENRE=
TTITLE0=Posin'
TTITLE1=The First Time I Saw You
TTITLE2=Honey. Keep Your Mind On Me
TTITLE3=Put On Your Old Grey Bonnet
TTITLE4=Pigeon Walk
TTITLE5=Like A Ship At Sea
TTITLE6=Teasin' Tessie Brown
TTITLE7=Annie Laurie
TTITLE8=Frisco Fog
TTITLE9=Margie
TTITLE10=The Love Nest
TTITLE11=I'm Laughin' Up My Sleeve
TTITLE12=Down By The Old Mill Stream
TTITLE13=My Melancholy Baby
TTITLE14=Sweet Sue. Just You
TTITLE15=By The River Sainte Marie
TTITLE16=Rainin'
TTITLE17='Tain't What You Do
TTITLE18=Cheatin' On Me
TTITLE19=Cheatin' On Me
TTITLE20=Le Jazz Hot
TTITLE21=Le Jazz Hot
TTITLE22=Time's A-Wastin'
TTITLE23=Time's A-Wastin
EXTD=
EXTT0=
EXTT1=
EXTT2=
EXTT3=
EXTT4=
EXTT5=
EXTT6=
EXTT7=
EXTT8=
EXTT9=
EXTT10=
EXTT11=
EXTT12=
EXTT13=
EXTT14=
EXTT15=
EXTT16=
EXTT17=
EXTT18=
EXTT19=
EXTT20=
EXTT21=
EXTT22=
EXTT23=
PLAYORDER=
